<?xml version="1.0" standalone="no"?>
<!DOCTYPE svg PUBLIC "-//W3C//DTD SVG 20010904//EN"
 "http://www.w3.org/TR/2001/REC-SVG-20010904/DTD/svg10.dtd">
<svg version="1.0" xmlns="http://www.w3.org/2000/svg"
 width="400.000000pt" height="400.000000pt" viewBox="0 0 400.000000 400.000000"
 preserveAspectRatio="xMidYMid meet">

<g transform="translate(0.000000,400.000000) scale(0.100000,-0.100000)"
fill="#000000" stroke="none">
<path d="M1940 3970 c-65 -8 -173 -46 -215 -74 -169 -115 -315 -289 -389 -460
-26 -62 -31 -85 -34 -187 -3 -83 1 -139 13 -200 30 -146 30 -150 6 -156 -27
-7 -35 -39 -27 -106 4 -31 2 -65 -4 -81 -12 -32 9 -156 35 -207 8 -15 15 -42
15 -59 0 -16 4 -38 9 -48 6 -9 18 -44 27 -77 20 -68 49 -127 88 -178 23 -30
25 -38 15 -59 -10 -23 -65 -58 -91 -58 -6 0 -19 -7 -29 -16 -22 -20 -133 -61
-214 -79 -79 -17 -141 -43 -190 -77 -22 -16 -50 -36 -62 -44 -12 -9 -75 -37
-140 -64 -65 -26 -148 -64 -185 -84 -37 -19 -83 -38 -102 -41 -19 -4 -42 -17
-53 -29 -87 -102 -116 -140 -150 -196 -46 -75 -115 -226 -180 -390 -89 -226
-82 -179 -83 -612 l0 -388 1356 0 1356 0 -4 181 -3 181 30 24 c35 28 82 31
125 9 22 -11 33 -28 44 -66 14 -46 14 -59 0 -123 -9 -39 -27 -91 -40 -115 -13
-24 -24 -54 -24 -67 l0 -24 245 0 244 0 8 30 c10 39 26 39 37 1 l9 -31 217 0
c185 0 225 3 271 18 30 11 60 17 67 15 6 -3 12 0 12 7 0 6 5 8 12 4 7 -5 5
-11 -7 -21 -15 -10 -21 -10 -28 0 -6 9 -8 9 -5 -2 2 -7 20 -15 41 -17 l37 -3
0 483 0 483 -61 119 c-34 66 -77 148 -97 184 -19 36 -40 74 -46 85 -35 66
-183 245 -202 245 -8 0 -42 13 -76 29 -102 47 -157 68 -263 100 -55 17 -120
44 -144 61 -24 16 -52 30 -62 30 -10 0 -20 4 -23 9 -3 5 -22 12 -41 15 -20 4
-53 22 -73 40 -45 41 -131 85 -172 90 -43 4 -67 32 -101 112 -35 82 -35 89 -7
134 22 36 68 196 68 237 0 13 17 41 40 65 52 55 61 86 67 240 5 110 3 131 -12
154 -14 22 -21 25 -51 19 -40 -7 -41 -3 -11 61 19 43 22 64 21 179 0 140 -11
202 -55 308 -37 89 -133 231 -188 276 -24 20 -54 46 -68 59 -13 12 -27 22 -30
22 -4 0 -14 7 -24 16 -51 46 -158 93 -249 110 -81 14 -116 15 -200 4z m219
-704 c-2 -20 -2 -20 -6 2 -2 12 -11 22 -19 22 -8 0 -12 5 -9 10 10 17 35 -9
34 -34z m35 9 c-4 -8 -10 -15 -15 -15 -5 0 -9 7 -9 15 0 8 7 15 15 15 9 0 12
-6 9 -15z m-268 -52 c-4 -9 -1 -20 5 -24 16 -10 36 -94 31 -130 -4 -27 -7 -29
-32 -24 -16 3 -31 2 -35 -4 -3 -6 1 -11 9 -11 9 0 16 -4 16 -9 0 -11 -65 -3
-91 10 -9 5 -32 6 -52 4 -25 -3 -42 1 -58 14 l-23 18 22 7 c11 4 24 15 27 25
5 16 11 17 52 10 25 -5 52 -14 59 -20 10 -8 14 -8 14 -1 0 6 -16 16 -34 23
-19 7 -33 16 -30 20 2 4 0 10 -6 14 -6 4 -8 11 -5 16 9 13 45 11 45 -3 0 -9 3
-9 12 0 17 17 38 15 38 -4 0 -10 6 -14 14 -11 8 3 17 3 19 -1 2 -4 2 -2 1 5
-2 7 1 15 6 18 6 3 1 16 -10 27 -15 16 -17 25 -9 35 16 18 22 16 15 -4z m141
-149 c-3 -3 -12 -4 -19 -1 -8 3 -5 6 6 6 11 1 17 -2 13 -5z m133 -4 c0 -5 -5
-10 -11 -10 -5 0 -7 5 -4 10 3 6 8 10 11 10 2 0 4 -4 4 -10z m189 -219 c11 -7
10 -11 -7 -20 -28 -15 -31 -14 -25 9 6 22 11 24 32 11z m-786 -23 c8 -30 2
-34 -30 -19 -27 12 -27 13 -8 27 26 19 32 18 38 -8z m655 -2 c10 -23 9 -24
-28 -22 l-39 1 21 23 c27 28 32 28 46 -2z m-512 -24 c11 -6 7 -9 -15 -9 -32 0
-35 4 -25 32 6 15 8 16 16 1 5 -8 16 -19 24 -24z m-399 -39 c-3 -10 -5 -2 -5
17 0 19 2 27 5 18 2 -10 2 -26 0 -35z m0 -85 c-2 -13 -4 -3 -4 22 0 25 2 35 4
23 2 -13 2 -33 0 -45z m660 -206 c47 -4 84 -3 86 2 4 11 47 -2 47 -14 0 -14
-38 -22 -57 -12 -24 12 -121 13 -128 1 -12 -18 -74 -10 -85 11 -12 23 -7 24
137 12z m-187 -26 c0 -3 -4 -8 -10 -11 -5 -3 -10 -1 -10 4 0 6 5 11 10 11 6 0
10 -2 10 -4z m312 -300 c7 -13 7 -17 0 -12 -6 3 -19 -7 -28 -24 -19 -30 -34
-39 -34 -19 0 7 -10 9 -24 5 -14 -3 -28 -2 -31 4 -10 17 -25 11 -25 -10 0 -11
-6 -20 -12 -20 -22 0 -41 17 -34 29 12 18 -16 13 -29 -6 -11 -15 -15 -15 -29
-3 -10 7 -16 23 -14 34 3 18 10 21 63 23 33 0 78 5 100 10 59 13 85 10 97 -11z"/>
<path d="M2850 346 c0 -2 7 -6 15 -10 8 -3 15 -1 15 4 0 6 -7 10 -15 10 -8 0
-15 -2 -15 -4z"/>
<path d="M2720 324 c0 -14 3 -15 18 -3 9 7 19 15 21 16 2 2 -5 3 -17 3 -14 0
-22 -6 -22 -16z"/>
<path d="M2747 291 c3 -12 9 -21 14 -21 14 0 11 16 -5 29 -12 10 -13 8 -9 -8z"/>
<path d="M2837 294 c3 -8 11 -14 19 -14 21 0 17 17 -5 23 -14 3 -18 1 -14 -9z"/>
<path d="M2774 251 c4 -6 0 -11 -9 -11 -9 0 -15 -6 -13 -12 9 -28 128 -17 128
11 0 12 -59 19 -63 8 -2 -6 -12 -5 -26 3 -15 7 -21 8 -17 1z"/>
<path d="M2726 207 c3 -10 9 -15 12 -12 3 3 0 11 -7 18 -10 9 -11 8 -5 -6z"/>
<path d="M2859 202 c-15 -9 -40 -39 -57 -67 -17 -29 -38 -58 -47 -65 -18 -15
-20 -70 -2 -70 20 0 37 22 38 50 1 17 3 19 6 7 6 -22 23 -12 23 14 0 10 6 19
13 19 17 0 43 46 51 93 4 20 6 37 4 36 -2 0 -15 -8 -29 -17z"/>
<path d="M2740 170 c-16 -40 -8 -48 15 -14 10 16 13 30 7 36 -6 6 -14 -2 -22
-22z"/>
<path d="M2760 134 c-34 -49 -34 -72 0 -33 29 34 52 79 41 79 -6 0 -24 -21
-41 -46z"/>
<path d="M2810 10 c0 -5 5 -10 10 -10 6 0 10 5 10 10 0 6 -4 10 -10 10 -5 0
-10 -4 -10 -10z"/>
</g>
</svg>
